<?xml version="1.0" standalone="no"?>
<!DOCTYPE svg PUBLIC "-//W3C//DTD SVG 20010904//EN"
 "http://www.w3.org/TR/2001/REC-SVG-20010904/DTD/svg10.dtd">
<svg version="1.0" xmlns="http://www.w3.org/2000/svg"
 width="700.000000pt" height="700.000000pt" viewBox="0 0 700.000000 700.000000"
 preserveAspectRatio="xMidYMid meet">
<metadata>
Created by potrace 1.11, written by Peter Selinger 2001-2013
</metadata>
<g transform="translate(0.000000,700.000000) scale(0.100000,-0.100000)"
fill="#000000" stroke="none">
<path d="M246 5425 c-2 -7 -1 -17 3 -23 4 -7 949 -10 3296 -9 3283 2 3290 2
3290 22 0 20 -7 20 -3292 20 -2446 1 -3294 -2 -3297 -10z"/>
<path d="M3598 4845 c-2 -2 -32 -5 -68 -8 -143 -13 -319 -83 -441 -175 -203
-155 -331 -407 -338 -667 -2 -86 18 -204 43 -252 l15 -29 183 1 c101 1 186 3
190 4 4 0 1 19 -7 41 -53 150 -52 357 2 455 55 99 166 189 283 229 225 76 488
-32 593 -243 29 -60 31 -72 32 -170 0 -58 -3 -133 -8 -166 -4 -33 -9 -81 -12
-106 l-5 -46 176 1 c205 1 194 -5 220 115 100 447 -233 925 -697 1000 -64 11
-157 20 -161 16z"/>
<path d="M388 4732 c-15 -3 -16 -25 -16 -181 l1 -178 630 1 631 1 0 178 c1
150 -1 177 -14 178 -36 3 -1218 4 -1232 1z"/>
<path d="M6255 3358 l0 -1353 225 -3 225 -2 -1 1342 c-1 739 -2 1349 -3 1356
-1 9 -53 12 -224 12 l-222 0 0 -1352z"/>
<path d="M5634 4444 c-115 -64 -236 -131 -270 -150 -129 -71 -143 -81 -135
-90 4 -5 24 -38 43 -74 19 -36 48 -87 63 -115 16 -27 40 -72 54 -99 14 -26 30
-50 36 -53 7 -2 43 14 81 35 154 88 461 259 496 277 42 22 42 32 3 95 -12 19
-43 75 -70 124 -26 49 -58 106 -70 127 l-21 39 -210 -116z"/>
<path d="M909 4056 c-2 -2 -25 -7 -52 -10 -26 -4 -60 -11 -75 -17 -15 -6 -27
-9 -27 -8 0 7 -122 -39 -191 -73 -76 -37 -214 -132 -214 -146 0 -12 240 -292
250 -292 5 0 37 18 71 40 122 79 253 115 394 107 133 -7 219 -39 350 -131 170
-119 263 -294 263 -494 0 -146 -38 -276 -115 -393 -91 -140 -228 -226 -453
-285 l-35 -10 0 -179 0 -180 75 1 c41 0 89 3 105 7 17 3 44 9 60 12 64 13 199
76 281 131 354 235 530 625 469 1039 -51 350 -301 667 -633 804 -59 24 -100
37 -226 68 -25 6 -292 14 -297 9z"/>
<path d="M3499 3576 c-2 -2 -23 -6 -46 -10 -111 -15 -258 -80 -363 -161 -222
-170 -342 -416 -341 -695 2 -449 380 -832 834 -844 489 -13 887 367 889 849 0
108 -6 157 -34 250 -67 228 -226 418 -443 528 -107 54 -220 80 -361 84 -72 2
-132 1 -135 -1z m258 -387 c255 -82 403 -362 322 -608 -65 -200 -232 -330
-444 -345 -159 -12 -343 83 -433 223 -126 196 -102 436 59 601 138 140 317
186 496 129z"/>
</g>
</svg>
