<?xml version="1.0" standalone="no"?>
<!DOCTYPE svg PUBLIC "-//W3C//DTD SVG 20010904//EN"
 "http://www.w3.org/TR/2001/REC-SVG-20010904/DTD/svg10.dtd">
<svg version="1.0" xmlns="http://www.w3.org/2000/svg"
 width="700.000000pt" height="700.000000pt" viewBox="0 0 700.000000 700.000000"
 preserveAspectRatio="xMidYMid meet">
<metadata>
Created by potrace 1.11, written by Peter Selinger 2001-2013
</metadata>
<g transform="translate(0.000000,700.000000) scale(0.100000,-0.100000)"
fill="#000000" stroke="none">
<path d="M3432 6169 c-68 -7 -118 -12 -222 -25 -25 -3 -61 -9 -80 -14 -19 -5
-51 -11 -70 -14 -179 -27 -447 -132 -632 -247 -69 -42 -235 -162 -248 -179
-21 -27 -125 -100 -157 -110 -119 -39 -330 -128 -408 -173 -402 -229 -647
-528 -739 -902 -24 -98 -27 -124 -31 -265 -4 -152 12 -283 50 -433 l25 -98
-20 -77 c-11 -42 -25 -104 -30 -137 -5 -33 -12 -71 -16 -85 -10 -45 -17 -350
-8 -350 5 0 9 66 10 148 0 81 6 179 13 217 8 39 15 79 17 90 12 70 39 163 45
159 4 -2 10 -18 14 -34 29 -134 223 -511 380 -741 34 -49 60 -102 74 -150 74
-248 167 -517 240 -692 22 -53 37 -97 34 -97 -3 0 -43 20 -88 45 -232 126
-447 326 -565 524 -84 141 -156 363 -159 489 -1 17 -5 32 -9 32 -19 0 18 -203
56 -310 115 -323 380 -602 748 -788 27 -14 51 -37 68 -67 116 -197 327 -432
480 -533 221 -146 424 -207 691 -207 165 0 202 4 350 35 185 38 357 101 582
214 108 54 139 65 198 71 86 8 334 43 343 49 4 2 25 7 47 10 56 9 237 54 315
78 92 29 263 89 275 97 6 4 42 20 80 36 156 65 331 178 405 262 107 122 200
299 271 518 32 101 84 321 94 405 4 30 9 69 11 85 9 66 13 116 20 240 6 130
16 170 71 294 21 47 50 150 73 256 42 196 7 399 -115 664 -82 178 -205 373
-353 557 -72 90 -95 127 -117 190 -74 208 -212 453 -309 549 -196 194 -601
348 -1051 401 -33 3 -68 8 -77 10 -10 1 -18 -1 -18 -5 0 -5 30 -11 68 -15 73
-7 77 -7 237 -37 362 -66 698 -216 851 -381 45 -48 126 -171 172 -263 59 -116
132 -303 126 -320 -4 -8 -1 -15 5 -15 5 0 20 -30 31 -67 28 -90 91 -336 86
-340 -1 -2 -19 21 -39 52 -21 30 -81 108 -136 172 -327 389 -795 695 -1331
867 -208 67 -291 80 -525 80 -257 1 -402 -14 -660 -69 -66 -15 -131 -28 -145
-31 -21 -4 -130 -33 -190 -51 -35 -10 42 28 106 52 201 77 418 134 683 179 63
11 215 20 343 20 71 1 128 5 128 10 0 11 -329 1 -435 -14 -278 -38 -645 -140
-850 -236 -44 -20 -154 -61 -244 -90 -187 -60 -187 -64 -1 80 323 247 618 355
1135 412 83 9 425 12 508 5 37 -4 67 -3 67 1 0 10 -27 11 -275 13 -110 1 -233
-2 -273 -6z m303 -302 c17 -3 50 -8 75 -12 174 -26 450 -126 695 -250 430
-219 783 -519 1015 -866 62 -91 72 -117 84 -209 3 -25 8 -55 11 -68 2 -13 7
-53 11 -90 6 -64 10 -81 17 -71 3 4 -12 130 -28 237 -3 23 -3 42 0 42 9 0 82
-159 116 -253 47 -129 96 -350 113 -507 4 -30 9 -73 11 -95 3 -22 8 -112 11
-201 l7 -161 -45 -89 c-25 -49 -55 -106 -67 -126 -11 -21 -31 -55 -42 -75 -74
-130 -201 -313 -334 -478 -83 -104 -327 -355 -428 -441 -33 -27 -64 -54 -70
-59 -31 -27 -197 -141 -282 -193 -31 -19 -81 -45 -75 -40 3 3 59 52 125 110
271 236 545 534 680 738 68 104 109 179 101 187 -2 3 -17 -19 -32 -49 -79
-156 -259 -381 -501 -624 -159 -160 -180 -180 -308 -289 -38 -33 -79 -68 -90
-79 -61 -57 -367 -169 -525 -192 -19 -3 -42 -7 -50 -9 -8 -2 -53 -7 -100 -11
-47 -4 -94 -8 -105 -10 -11 -1 -46 -3 -77 -3 -32 -1 -58 -5 -58 -10 0 -5 15
-8 33 -6 17 2 70 6 117 10 79 5 219 21 265 30 96 17 256 67 345 106 36 16 58
23 50 16 -75 -60 -226 -166 -324 -227 l-120 -74 -225 -1 c-349 0 -504 16 -753
81 -94 24 -268 81 -278 92 -3 2 22 1 55 -3 33 -4 71 -9 85 -11 13 -1 74 -6
135 -10 60 -3 113 -8 117 -10 5 -3 418 -5 471 -2 9 1 17 4 17 7 0 3 -107 6
-238 6 -254 0 -441 10 -572 31 -14 2 -47 7 -75 10 -87 12 -284 125 -425 243
-36 31 -87 74 -114 95 -64 52 -384 371 -462 461 -203 235 -308 378 -326 445
-23 79 -58 236 -74 325 -3 17 -9 48 -14 70 -5 22 -12 67 -15 100 -4 33 -9 62
-10 65 -10 17 -20 219 -19 375 2 192 14 282 60 435 48 160 94 282 159 425 14
31 23 61 19 67 -4 7 -3 8 4 4 8 -4 16 3 23 20 14 38 75 138 122 201 21 29 36
57 32 63 -4 6 -2 9 3 8 5 -2 52 47 104 107 106 124 189 209 267 275 30 25 59
50 65 55 24 23 154 105 211 133 65 33 226 86 325 107 8 2 42 10 75 18 79 21
288 64 345 72 25 3 56 8 70 10 57 9 109 15 185 21 44 3 81 7 83 9 5 4 315 -3
347 -8z m-1465 -231 c0 -2 -26 -19 -57 -36 -52 -29 -148 -101 -227 -170 -53
-46 -174 -174 -245 -260 -39 -47 -76 -84 -81 -83 -5 2 -16 -9 -24 -25 -8 -15
-41 -70 -75 -122 -105 -166 -247 -402 -300 -500 -72 -133 -229 -455 -282 -578
l-44 -102 -13 37 c-31 89 -56 276 -55 418 2 206 40 372 125 539 60 119 118
203 209 300 168 179 388 332 600 416 162 65 234 91 225 83 -37 -37 -162 -178
-192 -218 -21 -28 -41 -52 -44 -55 -17 -14 -131 -182 -127 -186 3 -3 20 16 38
43 69 102 191 253 276 342 88 92 88 92 188 126 116 39 105 36 105 31z m3302
-653 c220 -278 365 -549 438 -821 39 -148 30 -337 -24 -492 -9 -25 -16 -52
-16 -60 0 -8 -18 -55 -40 -105 l-39 -90 -1 80 c-1 118 -12 269 -25 355 -27
173 -32 198 -60 311 -44 174 -108 333 -189 471 -14 25 -35 87 -46 139 -20 97
-73 290 -85 309 -21 34 12 -4 87 -97z m-4124 -265 c-12 -24 -23 -45 -23 -48
-1 -3 -9 -23 -19 -45 -44 -99 -80 -201 -125 -355 -51 -177 -60 -253 -56 -505
2 -110 6 -213 8 -230 2 -16 7 -48 10 -70 4 -22 9 -60 13 -85 5 -39 47 -260 60
-315 3 -11 7 -29 9 -40 3 -11 11 -44 18 -72 8 -29 13 -53 12 -53 -7 0 -105
158 -173 277 -86 152 -162 318 -212 461 l-33 93 49 116 c72 171 299 618 393
776 79 133 114 181 69 95z m4417 -1465 c-7 -103 -15 -190 -20 -231 -33 -232
-72 -406 -125 -557 -68 -194 -188 -401 -284 -488 -214 -196 -704 -385 -1201
-462 -22 -3 -53 -8 -70 -11 -57 -9 -165 -20 -162 -17 2 2 56 36 119 77 64 41
169 114 235 163 65 49 147 105 183 124 100 52 303 192 404 277 90 76 284 265
361 352 32 37 134 160 168 205 135 178 299 440 373 598 10 20 19 37 20 37 2 0
1 -30 -1 -67z m-4385 -563 c51 -67 167 -208 245 -296 44 -50 241 -247 323
-322 146 -135 325 -276 422 -333 47 -27 78 -49 69 -49 -30 0 -222 41 -334 71
-139 38 -261 79 -397 136 l-107 45 -47 111 c-62 147 -204 546 -219 618 -2 8
-10 40 -19 69 -9 30 -12 50 -8 45 5 -6 37 -48 72 -95z m390 -832 c180 -71 390
-130 595 -167 66 -12 143 -31 170 -43 126 -52 239 -90 350 -118 126 -32 133
-33 205 -45 25 -4 52 -9 60 -10 28 -5 135 -16 200 -21 101 -7 440 -5 453 2 8
5 9 4 2 -4 -10 -10 -151 -82 -240 -122 -172 -78 -366 -134 -570 -166 -64 -10
-306 -11 -365 -1 -335 54 -575 193 -808 466 -51 59 -154 204 -185 259 l-19 33
39 -17 c21 -9 72 -30 113 -46z"/>
<path d="M4000 4768 c0 -110 -1 -112 -18 -90 -22 29 -86 51 -126 45 -75 -12
-116 -79 -118 -193 -2 -138 66 -202 194 -181 3 1 20 13 37 27 l31 26 0 -26 c0
-14 5 -26 10 -26 6 0 10 95 10 265 0 170 -4 265 -10 265 -6 0 -10 -44 -10
-112z m-44 -89 c33 -27 44 -67 44 -157 0 -78 -3 -92 -22 -114 -45 -48 -127
-59 -169 -22 -81 72 -61 281 30 310 37 12 92 4 117 -17z"/>
<path d="M3040 4799 c0 -12 -4 -38 -10 -58 -15 -56 -78 -351 -86 -401 -11 -76
13 -34 31 55 18 87 18 88 34 155 5 25 12 56 15 70 2 14 13 64 24 113 16 71 17
87 6 87 -8 0 -14 -10 -14 -21z"/>
<path d="M4672 4717 c-41 -13 -88 -65 -101 -115 -21 -77 -1 -173 45 -220 41
-41 130 -48 190 -16 32 17 49 42 22 31 -7 -3 -29 -12 -48 -20 -98 -41 -188 18
-193 126 l-2 42 120 1 c66 1 126 2 133 3 7 0 12 16 12 37 0 98 -83 159 -178
131z m104 -28 c28 -14 57 -71 52 -102 -3 -21 -7 -22 -124 -22 l-121 0 7 25
c29 98 109 141 186 99z"/>
<path d="M2134 4710 c-25 -10 -68 -64 -79 -99 -4 -13 -7 -52 -7 -86 0 -105 48
-171 133 -182 69 -10 149 46 149 102 0 27 -16 16 -25 -17 -13 -44 -64 -71
-123 -65 -77 8 -115 64 -114 169 1 111 45 168 128 168 64 0 114 -39 114 -89 0
-12 5 -21 10 -21 14 0 13 33 -2 65 -23 51 -122 80 -184 55z"/>
<path d="M2847 4641 c-37 -37 -67 -72 -67 -77 0 -14 125 -135 132 -128 12 11
-4 34 -53 82 l-49 47 50 52 c28 28 53 61 55 72 2 12 3 21 2 21 -2 0 -33 -31
-70 -69z"/>
<path d="M3090 4695 c0 -11 24 -46 54 -77 l54 -57 -55 -48 c-35 -31 -54 -55
-52 -66 3 -13 20 -2 73 48 l69 65 -25 28 c-115 125 -118 127 -118 107z"/>
<path d="M5637 4268 c8 -35 11 -476 4 -541 -4 -32 -4 -60 1 -63 4 -3 9 14 9
38 1 24 3 61 4 83 5 56 4 341 0 395 -2 25 -4 60 -4 78 -1 17 -5 32 -10 32 -6
0 -7 -10 -4 -22z"/>
<path d="M2023 4088 c-2 -5 102 -8 231 -8 130 0 454 0 721 0 1664 0 1918 1
1911 7 -10 10 -2856 10 -2863 1z"/>
<path d="M3378 3820 c-104 -32 -183 -100 -230 -199 -35 -73 -47 -183 -26 -239
11 -28 16 -31 67 -34 86 -5 114 0 106 20 -4 9 -9 47 -12 84 -5 55 -2 73 16
110 61 124 236 150 337 50 49 -49 57 -77 51 -173 l-5 -88 36 -3 c20 -2 56 -1
79 0 36 3 43 8 52 33 5 16 9 62 7 102 -2 58 -9 87 -34 138 -17 35 -39 73 -49
85 -41 46 -117 95 -180 114 -77 24 -139 24 -215 0z"/>
<path d="M2084 3791 c-2 -2 -4 -39 -4 -81 l0 -76 273 1 272 0 3 77 3 77 -271
3 c-150 2 -274 1 -276 -1z"/>
<path d="M4633 3193 l2 -588 95 0 95 0 3 588 2 587 -99 0 -100 0 2 -587z"/>
<path d="M4315 3640 c-66 -38 -120 -73 -120 -78 0 -6 16 -42 35 -80 25 -51 39
-69 51 -66 9 2 67 33 130 69 63 36 118 66 123 68 12 4 -73 157 -87 156 -7 0
-66 -32 -132 -69z"/>
<path d="M5627 3593 c-4 -32 -9 -71 -12 -88 -38 -211 -76 -349 -146 -517 -16
-39 -29 -73 -29 -76 0 -29 58 104 100 228 30 88 60 213 86 356 12 67 20 154
14 154 -4 0 -10 -26 -13 -57z"/>
<path d="M2249 3483 c-57 -15 -140 -57 -164 -83 -14 -16 -12 -22 36 -79 28
-33 52 -61 53 -61 2 0 31 14 66 32 117 58 234 36 331 -63 83 -85 98 -207 38
-323 -36 -71 -95 -112 -211 -150 -15 -4 -18 -18 -18 -80 0 -85 2 -88 85 -73
151 27 298 168 340 327 87 331 -222 638 -556 553z"/>
<path d="M3370 3271 c-130 -47 -214 -136 -246 -263 -80 -313 251 -568 539
-415 193 102 253 351 128 536 -42 63 -122 122 -196 144 -66 19 -169 18 -225
-2z m181 -153 c142 -49 190 -223 93 -336 -77 -90 -220 -97 -306 -15 -35 34
-67 109 -63 153 1 19 3 42 4 51 0 8 15 36 32 62 52 79 154 115 240 85z"/>
<path d="M3810 6002 c0 -5 25 -10 55 -11 50 -1 203 -21 280 -36 291 -56 553
-180 850 -403 96 -73 192 -157 319 -284 66 -65 122 -116 124 -113 12 12 -296
301 -423 397 -344 259 -618 382 -965 432 -150 21 -240 28 -240 18z"/>
</g>
</svg>
