<?xml version="1.0" encoding="utf-8"?>
<!-- Generator: Adobe Illustrator 16.0.0, SVG Export Plug-In . SVG Version: 6.00 Build 0)  -->
<!DOCTYPE svg PUBLIC "-//W3C//DTD SVG 1.1//EN" "http://www.w3.org/Graphics/SVG/1.1/DTD/svg11.dtd">
<svg version="1.1" id="Layer_1" xmlns="http://www.w3.org/2000/svg" xmlns:xlink="http://www.w3.org/1999/xlink" x="0px" y="0px"
	 width="283.46px" height="283.46px" viewBox="0 0 283.46 283.46" enable-background="new 0 0 283.46 283.46" xml:space="preserve">
<rect x="0" y="0" width="283.459" height="283.459"/>
<g>
	<path fill="#FFFFFF" d="M112.518,98.972v-0.488l5.525-5.922v1.523l-4.304,4.585v0.05l4.304,4.05v1.536L112.518,98.972z"/>
	<path fill="#FFFFFF" d="M119.666,109.053h-0.796l4.525-20.893h0.817L119.666,109.053z"/>
	<path fill="#FFFFFF" d="M125.128,104.306v-1.536l4.318-4.038V98.67l-4.318-4.585v-1.523l5.525,5.922v0.488L125.128,104.306z"/>
</g>
<path fill="#FFFFFF" d="M88.938,106.952c1.256,0,2.364-0.345,3.327-1.03c0.962-0.688,1.443-1.72,1.443-3.093h0.633l0.027,0.082
	c0.036,1.457-0.498,2.619-1.602,3.485c-1.105,0.866-2.381,1.299-3.829,1.299c-1.898,0-3.385-0.684-4.462-2.047
	c-1.077-1.367-1.615-3.162-1.615-5.389V99.68c0-2.217,0.536-4.009,1.607-5.375c1.073-1.366,2.553-2.047,4.441-2.047
	c1.541,0,2.844,0.449,3.911,1.354c1.069,0.902,1.583,2.174,1.547,3.815l-0.027,0.082h-0.633c0-1.457-0.466-2.571-1.402-3.346
	c-0.935-0.775-2.067-1.163-3.396-1.163c-1.741,0-3.062,0.625-3.959,1.871s-1.348,2.851-1.348,4.81v0.579
	c0,1.978,0.45,3.59,1.348,4.832C85.849,106.332,87.178,106.952,88.938,106.952z"/>
<path fill="#FFFFFF" d="M151.311,99.852c0-2.354,0.495-4.226,1.485-5.616c0.989-1.388,2.364-2.081,4.124-2.081
	c1.154,0,2.157,0.258,3.004,0.775c0.848,0.519,1.523,1.227,2.028,2.124v-9.197h0.742v11.151c0,0.017,0,0.031,0,0.041
	c0,0.01,0.004,0.015,0.014,0.015v6.061c-0.01,0.019-0.014,0.033-0.014,0.043c0,0.009,0,0.017,0,0.026v4.109h-0.715l-0.027-2.295
	c-0.495,0.798-1.174,1.427-2.036,1.89c-0.86,0.463-1.869,0.695-3.024,0.695c-1.749,0-3.117-0.67-4.103-2.007
	c-0.985-1.338-1.479-3.152-1.479-5.444V99.852z M152.081,100.141c0,2.055,0.404,3.684,1.216,4.894
	c0.813,1.21,2.006,1.814,3.582,1.814c1.291,0,2.365-0.291,3.217-0.874c0.853-0.582,1.471-1.356,1.856-2.328v-7.039
	c-0.366-1.055-0.947-1.938-1.739-2.648c-0.793-0.71-1.896-1.064-3.307-1.064c-1.577,0-2.775,0.644-3.596,1.931
	c-0.82,1.289-1.229,2.963-1.229,5.025V100.141z"/>
<path fill="#FFFFFF" d="M190.991,107.589c-1.751,0-3.229-0.679-4.435-2.035c-1.205-1.355-1.807-3.064-1.807-5.126v-0.88
	c0-2.152,0.598-3.925,1.794-5.314c1.197-1.387,2.701-2.081,4.517-2.081c1.649,0,2.965,0.543,3.945,1.629
	c0.981,1.086,1.473,2.569,1.473,4.446v1.141h-10.986v0.179v0.88c0,1.815,0.513,3.339,1.539,4.57c1.027,1.233,2.347,1.849,3.96,1.849
	c0.89,0,1.744-0.165,2.564-0.494c0.82-0.33,1.487-0.771,2.001-1.32l0.398,0.576c-0.521,0.579-1.196,1.053-2.021,1.423
	S192.128,107.589,190.991,107.589z M191.061,92.894c-1.54,0-2.803,0.533-3.788,1.603c-0.985,1.066-1.542,2.416-1.67,4.049
	l0.041,0.081h10.091v-0.454c0-1.531-0.416-2.792-1.251-3.787S192.508,92.894,191.061,92.894z"/>
<path fill-rule="evenodd" clip-rule="evenodd" fill="#FFFFFF" d="M195.508,177.992c-2.692,0-5.241,0-7.889,0
	c0-15.891,0-31.689,0-47.642c2.561,0,5.155,0,7.889,0C195.508,146.151,195.508,161.996,195.508,177.992z"/>
<path fill-rule="evenodd" clip-rule="evenodd" fill="#FFFFFF" d="M173.004,145.419c-1.143-2.067-2.373-4.294-3.521-6.372
	c3.654-2.023,7.327-4.057,10.893-6.031c1.144,2.058,2.378,4.277,3.517,6.328C180.371,141.309,176.75,143.33,173.004,145.419z"/>
<path fill-rule="evenodd" clip-rule="evenodd" fill="#FFFFFF" d="M88.138,151.574c-1.552-1.827-3.001-3.532-4.449-5.234
	c6.286-5.572,15.573-6.074,22.535-1.294c6.871,4.718,9.7,13.561,6.862,21.448c-2.542,7.064-10.066,12.443-16.612,11.805
	c0-2.091,0-4.189,0-6.348c5.854-1.094,9.771-4.354,10.616-10.359c0.644-4.574-1.275-8.365-5.146-10.876
	C97.318,147.713,92.706,148.284,88.138,151.574z"/>
<path fill-rule="evenodd" clip-rule="evenodd" fill="#FFFFFF" d="M106.359,129.946c0,2.161,0,4.193,0,6.331
	c-7.391,0-14.698,0-22.164,0c0-2.027,0-4.108,0-6.331C91.487,129.946,98.839,129.946,106.359,129.946z"/>
<path fill-rule="evenodd" clip-rule="evenodd" fill="#FFFFFF" d="M141.146,180.413c-8.366,0.009-15.302-6.889-15.237-15.153
	c0.066-8.281,6.852-15.039,15.125-15.062c8.464-0.023,15.252,6.663,15.277,15.048C156.336,173.627,149.563,180.402,141.146,180.413z
	 M141.044,173.92c4.707,0.047,8.652-3.768,8.739-8.443c0.088-4.748-3.818-8.771-8.569-8.82c-4.738-0.049-8.745,3.912-8.745,8.648
	C132.47,169.953,136.371,173.875,141.044,173.92z"/>
<path fill-rule="evenodd" clip-rule="evenodd" fill="#FFFFFF" d="M133.67,147.879c-2.253,0-4.49,0-6.714,0
	c-2.406-4.998-0.245-12.502,4.428-16.258c5.741-4.618,13.228-4.817,19.013-0.433c5.121,3.88,7.339,11.286,4.96,16.696
	c-2.216,0-4.457,0-6.35,0c0.191-2.168,0.668-4.348,0.498-6.476c-0.186-2.32-1.665-4.124-3.63-5.424
	c-3.123-2.063-6.997-1.896-10.054,0.409C132.505,138.893,131.886,142.159,133.67,147.879z"/>
<line fill="none" stroke="#FFFFFF" stroke-width="0.6123" stroke-miterlimit="10" x1="81.941" y1="117.98" x2="197.874" y2="117.98"/>
<path fill="none" stroke="#FFFFFF" stroke-width="0.9102" stroke-miterlimit="10" d="M68.694,63.103
	c0,0,57.038-24.876,89.803-16.382s66.139,33.372,75.239,64.922c9.103,31.55,3.643,72.811-11.527,90.403
	c-15.171,17.596-89.196,37.012-128.638,6.067C54.131,177.172-2.907,101.329,68.694,63.103z"/>
<path fill="none" stroke="#FFFFFF" stroke-width="0.4551" stroke-miterlimit="10" d="M37.879,131.904
	c0,0,22.739-57.92,51.917-75.082c29.177-17.16,70.365-23.167,99.112-7.292c28.747,15.875,54.063,48.909,55.777,72.078
	c1.714,23.165-36.899,89.237-86.67,95.243C108.244,222.859,14.28,209.559,37.879,131.904z"/>
<path fill="none" stroke="#FFFFFF" stroke-width="0.4551" stroke-miterlimit="10" d="M67.71,202.924c0,0-24.88-57.033-16.383-89.798
	c8.496-32.764,33.374-66.135,64.923-75.237c31.555-9.099,72.815-3.641,90.412,11.53c17.592,15.169,37.011,89.191,6.065,128.627
	C181.783,217.486,105.934,274.523,67.71,202.924z"/>
</svg>
