<?xml version="1.0" encoding="utf-8"?>
<!-- Generator: Adobe Illustrator 16.0.0, SVG Export Plug-In . SVG Version: 6.00 Build 0)  -->
<!DOCTYPE svg PUBLIC "-//W3C//DTD SVG 1.1//EN" "http://www.w3.org/Graphics/SVG/1.1/DTD/svg11.dtd">
<svg version="1.1" id="Layer_1" xmlns="http://www.w3.org/2000/svg" xmlns:xlink="http://www.w3.org/1999/xlink" x="0px" y="0px"
	 width="283.46px" height="283.46px" viewBox="0 0 283.46 283.46" enable-background="new 0 0 283.46 283.46" xml:space="preserve">
<g>
	<path d="M106.144,93.517v-0.642l7.262-7.783v2.001l-5.657,6.026v0.065l5.657,5.323v2.02L106.144,93.517z"/>
	<path d="M115.538,106.765h-1.046l5.946-27.459h1.074L115.538,106.765z"/>
	<path d="M122.717,100.527v-2.02l5.674-5.307V93.12l-5.674-6.026v-2.001l7.261,7.783v0.642L122.717,100.527z"/>
</g>
<path d="M75.153,104.004c1.65,0,3.106-0.454,4.373-1.354c1.265-0.904,1.896-2.26,1.896-4.064h0.832l0.035,0.108
	c0.047,1.915-0.654,3.441-2.105,4.58c-1.452,1.139-3.129,1.707-5.032,1.707c-2.495,0-4.45-0.899-5.865-2.69
	c-1.416-1.796-2.123-4.156-2.123-7.083v-0.761c0-2.914,0.705-5.269,2.112-7.064c1.411-1.796,3.355-2.69,5.837-2.69
	c2.026,0,3.737,0.59,5.14,1.779c1.405,1.187,2.08,2.858,2.034,5.014l-0.036,0.108h-0.832c0-1.915-0.612-3.379-1.842-4.397
	c-1.229-1.019-2.717-1.528-4.464-1.528c-2.288,0-4.024,0.821-5.203,2.459s-1.772,3.747-1.772,6.322v0.76
	c0,2.6,0.591,4.719,1.772,6.351C71.093,103.189,72.84,104.004,75.153,104.004z"/>
<path d="M157.128,94.673c0-3.094,0.65-5.554,1.952-7.381c1.299-1.824,3.105-2.734,5.419-2.734c1.517,0,2.836,0.338,3.947,1.018
	c1.115,0.682,2.002,1.613,2.667,2.792V76.28h0.975v14.655c0,0.022,0,0.041,0,0.054c0,0.014,0.007,0.02,0.019,0.02v7.966
	c-0.012,0.024-0.019,0.043-0.019,0.057c0,0.011,0,0.022,0,0.034v5.4h-0.939l-0.035-3.016c-0.651,1.049-1.543,1.875-2.677,2.484
	c-1.129,0.608-2.457,0.913-3.974,0.913c-2.299,0-4.098-0.88-5.395-2.637c-1.293-1.759-1.942-4.143-1.942-7.155v-0.381H157.128z
	 M158.14,95.053c0,2.7,0.53,4.841,1.598,6.432c1.068,1.59,2.636,2.384,4.707,2.384c1.697,0,3.109-0.383,4.229-1.149
	c1.121-0.765,1.933-1.782,2.439-3.06v-9.251c-0.482-1.387-1.244-2.547-2.287-3.48c-1.041-0.933-2.491-1.398-4.346-1.398
	c-2.071,0-3.647,0.846-4.726,2.538c-1.078,1.694-1.615,3.894-1.615,6.604V95.053z"/>
<path d="M209.28,104.841c-2.303,0-4.244-0.892-5.829-2.674c-1.585-1.781-2.375-4.027-2.375-6.738v-1.156
	c0-2.829,0.785-5.159,2.356-6.984c1.573-1.823,3.55-2.735,5.938-2.735c2.166,0,3.896,0.713,5.185,2.141
	c1.289,1.427,1.937,3.376,1.937,5.843v1.5h-14.439v0.235v1.156c0,2.386,0.675,4.389,2.022,6.007c1.351,1.621,3.085,2.43,5.206,2.43
	c1.167,0,2.291-0.217,3.368-0.649c1.078-0.434,1.955-1.013,2.631-1.735l0.523,0.757c-0.686,0.761-1.573,1.385-2.657,1.871
	S210.773,104.841,209.28,104.841z M209.371,85.528c-2.024,0-3.685,0.7-4.979,2.107c-1.294,1.401-2.027,3.175-2.194,5.321
	l0.054,0.107h13.262v-0.597c0-2.012-0.546-3.67-1.644-4.978C212.772,86.182,211.272,85.528,209.371,85.528z"/>
<path d="M215.214,197.372c-3.537,0-6.887,0-10.368,0c0-20.885,0-41.648,0-62.616c3.366,0,6.775,0,10.368,0
	C215.214,155.524,215.214,176.348,215.214,197.372z"/>
<path d="M185.637,154.563c-1.501-2.717-3.118-5.645-4.626-8.375c4.803-2.66,9.629-5.333,14.317-7.928
	c1.502,2.704,3.123,5.621,4.621,8.317C195.321,149.161,190.562,151.816,185.637,154.563z"/>
<path d="M74.102,162.652c-2.04-2.401-3.944-4.642-5.848-6.881c8.262-7.321,20.468-7.98,29.617-1.698
	c9.031,6.2,12.749,17.822,9.019,28.188c-3.341,9.285-13.229,16.354-21.833,15.515c0-2.747,0-5.505,0-8.343
	c7.693-1.437,12.842-5.722,13.952-13.615c0.847-6.01-1.676-10.992-6.763-14.292C86.167,157.577,80.105,158.329,74.102,162.652z"/>
<path d="M98.049,134.224c0,2.841,0,5.511,0,8.322c-9.714,0-19.317,0-29.13,0c0-2.665,0-5.4,0-8.322
	C78.502,134.224,88.165,134.224,98.049,134.224z"/>
<path d="M143.768,200.555c-10.995,0.01-20.11-9.055-20.025-19.918c0.087-10.882,9.005-19.764,19.877-19.793
	c11.124-0.03,20.047,8.756,20.079,19.775C163.732,191.634,154.831,200.539,143.768,200.555z M143.634,192.019
	c6.187,0.063,11.37-4.951,11.485-11.095c0.115-6.24-5.019-11.527-11.262-11.592c-6.226-0.064-11.493,5.141-11.493,11.365
	C132.366,186.806,137.494,191.961,143.634,192.019z"/>
<path d="M133.943,157.794c-2.96,0-5.901,0-8.823,0c-3.163-6.568-0.323-16.432,5.819-21.368c7.545-6.07,17.384-6.332,24.989-0.569
	c6.73,5.099,9.645,14.834,6.518,21.944c-2.911,0-5.857,0-8.345,0c0.252-2.849,0.879-5.713,0.655-8.511
	c-0.245-3.049-2.189-5.421-4.772-7.13c-4.104-2.711-9.195-2.492-13.213,0.539C132.412,145.985,131.598,150.278,133.943,157.794z"/>
<line fill="none" stroke="#000000" stroke-miterlimit="10" x1="65.957" y1="118.498" x2="218.326" y2="118.498"/>
<g id="Layer_2">
	<path fill="none" stroke="#000000" stroke-width="1.1963" stroke-miterlimit="10" d="M48.612,46.566
		c0,0,74.964-32.694,118.017-21.531c43.066,11.165,86.927,43.859,98.887,85.327c11.965,41.466,4.787,95.694-15.15,118.817
		c-19.938,23.127-117.219,48.646-169.057,7.972C29.473,196.487-45.491,96.805,48.612,46.566z"/>
	<path fill="none" stroke="#000000" stroke-width="0.5981" stroke-miterlimit="10" d="M8.113,136.989
		c0,0,29.886-76.124,68.234-98.679c38.346-22.552,92.472-30.447,130.252-9.583s71.054,64.281,73.308,94.73
		c2.251,30.449-48.495,117.286-113.909,125.179C100.592,256.533-22.903,239.048,8.113,136.989z"/>
	<path fill="none" stroke="#000000" stroke-width="0.5981" stroke-miterlimit="10" d="M47.32,230.332c0,0-32.7-74.96-21.532-118.022
		c11.167-43.062,43.863-86.92,85.329-98.882c41.462-11.959,95.69-4.786,118.818,15.153c23.121,19.937,48.645,117.223,7.973,169.053
		C197.235,249.471,97.556,324.431,47.32,230.332z"/>
</g>
</svg>
