<?xml version="1.0" encoding="utf-8"?>
<!-- Generator: Adobe Illustrator 16.0.0, SVG Export Plug-In . SVG Version: 6.00 Build 0)  -->
<!DOCTYPE svg PUBLIC "-//W3C//DTD SVG 1.1//EN" "http://www.w3.org/Graphics/SVG/1.1/DTD/svg11.dtd">
<svg version="1.1" xmlns="http://www.w3.org/2000/svg" xmlns:xlink="http://www.w3.org/1999/xlink" x="0px" y="0px"
	 width="283.46px" height="283.46px" viewBox="0 0 283.46 283.46" enable-background="new 0 0 283.46 283.46" xml:space="preserve">
<g id="Layer_1">
	<g>
		<path d="M112.518,98.972v-0.488l5.525-5.922v1.523l-4.304,4.585v0.05l4.304,4.05v1.536L112.518,98.972z"/>
		<path d="M119.666,109.053h-0.796l4.525-20.893h0.817L119.666,109.053z"/>
		<path d="M125.128,104.306v-1.536l4.318-4.038V98.67l-4.318-4.585v-1.523l5.525,5.922v0.488L125.128,104.306z"/>
	</g>
	<path d="M88.938,106.952c1.256,0,2.364-0.345,3.327-1.03c0.962-0.688,1.443-1.72,1.443-3.093h0.633l0.027,0.082
		c0.036,1.457-0.498,2.619-1.602,3.485c-1.105,0.866-2.381,1.299-3.829,1.299c-1.898,0-3.385-0.684-4.462-2.047
		c-1.077-1.367-1.615-3.162-1.615-5.389V99.68c0-2.217,0.536-4.009,1.607-5.375c1.073-1.366,2.553-2.047,4.441-2.047
		c1.541,0,2.844,0.449,3.911,1.354c1.069,0.902,1.583,2.174,1.547,3.815l-0.027,0.082h-0.633c0-1.457-0.466-2.571-1.402-3.346
		c-0.935-0.775-2.067-1.163-3.396-1.163c-1.741,0-3.062,0.625-3.959,1.871s-1.348,2.851-1.348,4.81v0.579
		c0,1.978,0.45,3.59,1.348,4.832C85.849,106.332,87.178,106.952,88.938,106.952z"/>
	<path d="M151.311,99.852c0-2.354,0.495-4.226,1.485-5.616c0.989-1.388,2.364-2.081,4.124-2.081c1.154,0,2.157,0.258,3.004,0.775
		c0.848,0.519,1.523,1.227,2.028,2.124v-9.197h0.742v11.151c0,0.017,0,0.031,0,0.041c0,0.01,0.004,0.015,0.014,0.015v6.061
		c-0.01,0.019-0.014,0.033-0.014,0.043c0,0.009,0,0.017,0,0.026v4.109h-0.715l-0.027-2.295c-0.495,0.798-1.174,1.427-2.036,1.89
		c-0.86,0.463-1.869,0.695-3.024,0.695c-1.749,0-3.117-0.67-4.103-2.007c-0.985-1.338-1.479-3.152-1.479-5.444V99.852z
		 M152.081,100.141c0,2.055,0.404,3.684,1.216,4.894c0.813,1.21,2.006,1.814,3.582,1.814c1.291,0,2.365-0.291,3.217-0.874
		c0.853-0.582,1.471-1.356,1.856-2.328v-7.039c-0.366-1.055-0.947-1.938-1.739-2.648c-0.793-0.71-1.896-1.064-3.307-1.064
		c-1.577,0-2.775,0.644-3.596,1.931c-0.82,1.289-1.229,2.963-1.229,5.025V100.141z"/>
	<path d="M190.991,107.589c-1.751,0-3.229-0.679-4.435-2.035c-1.205-1.355-1.807-3.064-1.807-5.126v-0.88
		c0-2.152,0.598-3.925,1.794-5.314c1.197-1.387,2.701-2.081,4.517-2.081c1.649,0,2.965,0.543,3.945,1.629
		c0.981,1.086,1.473,2.569,1.473,4.446v1.141h-10.986v0.179v0.88c0,1.815,0.513,3.339,1.539,4.57
		c1.027,1.233,2.347,1.849,3.96,1.849c0.89,0,1.744-0.165,2.564-0.494c0.82-0.33,1.487-0.771,2.001-1.32l0.398,0.576
		c-0.521,0.579-1.196,1.053-2.021,1.423S192.128,107.589,190.991,107.589z M191.061,92.894c-1.54,0-2.803,0.533-3.788,1.603
		c-0.985,1.066-1.542,2.416-1.67,4.049l0.041,0.081h10.091v-0.454c0-1.531-0.416-2.792-1.251-3.787S192.508,92.894,191.061,92.894z"
		/>
	<path fill-rule="evenodd" clip-rule="evenodd" d="M195.508,177.992c-2.692,0-5.241,0-7.889,0c0-15.891,0-31.689,0-47.642
		c2.561,0,5.155,0,7.889,0C195.508,146.151,195.508,161.996,195.508,177.992z"/>
	<path fill-rule="evenodd" clip-rule="evenodd" d="M173.004,145.419c-1.143-2.067-2.373-4.294-3.521-6.372
		c3.654-2.023,7.327-4.057,10.893-6.031c1.144,2.058,2.378,4.277,3.517,6.328C180.371,141.309,176.75,143.33,173.004,145.419z"/>
	<path fill-rule="evenodd" clip-rule="evenodd" d="M88.138,151.574c-1.552-1.827-3.001-3.532-4.449-5.234
		c6.286-5.572,15.573-6.074,22.535-1.294c6.871,4.718,9.7,13.561,6.862,21.448c-2.542,7.064-10.066,12.443-16.612,11.805
		c0-2.091,0-4.189,0-6.348c5.854-1.094,9.771-4.354,10.616-10.359c0.644-4.574-1.275-8.365-5.146-10.876
		C97.318,147.713,92.706,148.284,88.138,151.574z"/>
	<path fill-rule="evenodd" clip-rule="evenodd" d="M106.359,129.946c0,2.161,0,4.193,0,6.331c-7.391,0-14.698,0-22.164,0
		c0-2.027,0-4.108,0-6.331C91.487,129.946,98.839,129.946,106.359,129.946z"/>
	<path fill-rule="evenodd" clip-rule="evenodd" d="M141.146,180.413c-8.366,0.009-15.302-6.889-15.237-15.153
		c0.066-8.281,6.852-15.039,15.125-15.062c8.464-0.023,15.252,6.663,15.277,15.048C156.336,173.627,149.563,180.402,141.146,180.413
		z M141.044,173.92c4.707,0.047,8.652-3.768,8.739-8.443c0.088-4.748-3.818-8.771-8.569-8.82c-4.738-0.049-8.745,3.912-8.745,8.648
		C132.47,169.953,136.371,173.875,141.044,173.92z"/>
	<path fill-rule="evenodd" clip-rule="evenodd" d="M133.67,147.879c-2.253,0-4.49,0-6.714,0c-2.406-4.998-0.245-12.502,4.428-16.258
		c5.741-4.618,13.228-4.817,19.013-0.433c5.121,3.88,7.339,11.286,4.96,16.696c-2.216,0-4.457,0-6.35,0
		c0.191-2.168,0.668-4.348,0.498-6.476c-0.186-2.32-1.665-4.124-3.63-5.424c-3.123-2.063-6.997-1.896-10.054,0.409
		C132.505,138.893,131.886,142.159,133.67,147.879z"/>
	
		<line fill="none" stroke="#000000" stroke-width="0.6123" stroke-miterlimit="10" x1="81.941" y1="117.98" x2="197.874" y2="117.98"/>
</g>
<g id="Layer_2">
	<linearGradient id="SVGID_1_" gradientUnits="userSpaceOnUse" x1="34.1099" y1="134.8418" x2="238.665" y2="134.8418">
		<stop  offset="0" style="stop-color:#FCB440"/>
		<stop  offset="0.0853" style="stop-color:#FCB542"/>
		<stop  offset="0.1312" style="stop-color:#FBBB4A"/>
		<stop  offset="0.1677" style="stop-color:#FAC459"/>
		<stop  offset="0.1993" style="stop-color:#F8D26C"/>
		<stop  offset="0.2274" style="stop-color:#F7E384"/>
		<stop  offset="0.2419" style="stop-color:#F6F194"/>
		<stop  offset="0.2807" style="stop-color:#F3F092"/>
		<stop  offset="0.3046" style="stop-color:#EBEC8D"/>
		<stop  offset="0.3244" style="stop-color:#DEE784"/>
		<stop  offset="0.342" style="stop-color:#CBDF78"/>
		<stop  offset="0.3581" style="stop-color:#B3D567"/>
		<stop  offset="0.373" style="stop-color:#95CA54"/>
		<stop  offset="0.3869" style="stop-color:#6FBE45"/>
		<stop  offset="0.3871" style="stop-color:#6EBE44"/>
		<stop  offset="0.4252" style="stop-color:#6FBD46"/>
		<stop  offset="0.4624" style="stop-color:#6FBA4D"/>
		<stop  offset="0.4993" style="stop-color:#70B65A"/>
		<stop  offset="0.5361" style="stop-color:#70B16C"/>
		<stop  offset="0.5727" style="stop-color:#70AA81"/>
		<stop  offset="0.6093" style="stop-color:#70A296"/>
		<stop  offset="0.6458" style="stop-color:#7198AD"/>
		<stop  offset="0.6814" style="stop-color:#708BC4"/>
		<stop  offset="0.6828" style="stop-color:#708AC6"/>
		<stop  offset="0.8226" style="stop-color:#A155A1"/>
		<stop  offset="0.9043" style="stop-color:#C5467C"/>
		<stop  offset="1" style="stop-color:#EE2553"/>
	</linearGradient>
	<path fill="none" stroke="url(#SVGID_1_)" stroke-width="0.9102" stroke-miterlimit="10" d="M68.744,63.249
		c0,0,57.038-24.876,89.797-16.382c32.767,8.495,66.14,33.371,75.24,64.923c9.103,31.55,3.643,72.81-11.527,90.404
		c-15.171,17.596-89.19,37.012-128.632,6.066C54.181,177.318-2.857,101.474,68.744,63.249z"/>
	<linearGradient id="SVGID_2_" gradientUnits="userSpaceOnUse" x1="33.9653" y1="129.3535" x2="245.0127" y2="129.3535">
		<stop  offset="0" style="stop-color:#FCB440"/>
		<stop  offset="0.0853" style="stop-color:#FCB542"/>
		<stop  offset="0.1312" style="stop-color:#FBBB4A"/>
		<stop  offset="0.1677" style="stop-color:#FAC459"/>
		<stop  offset="0.1993" style="stop-color:#F8D26C"/>
		<stop  offset="0.2274" style="stop-color:#F7E384"/>
		<stop  offset="0.2419" style="stop-color:#F6F194"/>
		<stop  offset="0.2807" style="stop-color:#F3F092"/>
		<stop  offset="0.3046" style="stop-color:#EBEC8D"/>
		<stop  offset="0.3244" style="stop-color:#DEE784"/>
		<stop  offset="0.342" style="stop-color:#CBDF78"/>
		<stop  offset="0.3581" style="stop-color:#B3D567"/>
		<stop  offset="0.373" style="stop-color:#95CA54"/>
		<stop  offset="0.3869" style="stop-color:#6FBE45"/>
		<stop  offset="0.3871" style="stop-color:#6EBE44"/>
		<stop  offset="0.4252" style="stop-color:#6FBD46"/>
		<stop  offset="0.4624" style="stop-color:#6FBA4D"/>
		<stop  offset="0.4993" style="stop-color:#70B65A"/>
		<stop  offset="0.5361" style="stop-color:#70B16C"/>
		<stop  offset="0.5727" style="stop-color:#70AA81"/>
		<stop  offset="0.6093" style="stop-color:#70A296"/>
		<stop  offset="0.6458" style="stop-color:#7198AD"/>
		<stop  offset="0.6814" style="stop-color:#708BC4"/>
		<stop  offset="0.6828" style="stop-color:#708AC6"/>
		<stop  offset="0.8226" style="stop-color:#A155A1"/>
		<stop  offset="0.9043" style="stop-color:#C5467C"/>
		<stop  offset="1" style="stop-color:#EE2553"/>
	</linearGradient>
	<path fill="none" stroke="url(#SVGID_2_)" stroke-width="0.4551" stroke-miterlimit="10" d="M37.929,132.049
		c0,0,22.74-57.92,51.917-75.082c29.177-17.159,70.36-23.166,99.107-7.291c28.746,15.875,54.062,48.909,55.777,72.077
		c1.713,23.167-36.899,89.239-86.67,95.245C108.294,223.006,14.33,209.703,37.929,132.049z"/>
	<linearGradient id="SVGID_3_" gradientUnits="userSpaceOnUse" x1="49.3813" y1="135.4272" x2="229.3252" y2="135.4272">
		<stop  offset="0" style="stop-color:#FCB440"/>
		<stop  offset="0.0853" style="stop-color:#FCB542"/>
		<stop  offset="0.1312" style="stop-color:#FBBB4A"/>
		<stop  offset="0.1677" style="stop-color:#FAC459"/>
		<stop  offset="0.1993" style="stop-color:#F8D26C"/>
		<stop  offset="0.2274" style="stop-color:#F7E384"/>
		<stop  offset="0.2419" style="stop-color:#F6F194"/>
		<stop  offset="0.2807" style="stop-color:#F3F092"/>
		<stop  offset="0.3046" style="stop-color:#EBEC8D"/>
		<stop  offset="0.3244" style="stop-color:#DEE784"/>
		<stop  offset="0.342" style="stop-color:#CBDF78"/>
		<stop  offset="0.3581" style="stop-color:#B3D567"/>
		<stop  offset="0.373" style="stop-color:#95CA54"/>
		<stop  offset="0.3869" style="stop-color:#6FBE45"/>
		<stop  offset="0.3871" style="stop-color:#6EBE44"/>
		<stop  offset="0.4252" style="stop-color:#6FBD46"/>
		<stop  offset="0.4624" style="stop-color:#6FBA4D"/>
		<stop  offset="0.4993" style="stop-color:#70B65A"/>
		<stop  offset="0.5361" style="stop-color:#70B16C"/>
		<stop  offset="0.5727" style="stop-color:#70AA81"/>
		<stop  offset="0.6093" style="stop-color:#70A296"/>
		<stop  offset="0.6458" style="stop-color:#7198AD"/>
		<stop  offset="0.6814" style="stop-color:#708BC4"/>
		<stop  offset="0.6828" style="stop-color:#708AC6"/>
		<stop  offset="0.8226" style="stop-color:#A155A1"/>
		<stop  offset="0.9043" style="stop-color:#C5467C"/>
		<stop  offset="1" style="stop-color:#EE2553"/>
	</linearGradient>
	<path fill="none" stroke="url(#SVGID_3_)" stroke-width="0.4551" stroke-miterlimit="10" d="M67.761,203.07
		c0,0-24.88-57.035-16.383-89.799c8.496-32.764,33.374-66.135,64.924-75.237c31.548-9.099,72.809-3.641,90.407,11.53
		c17.592,15.169,37.011,89.191,6.065,128.627C181.827,217.633,105.984,274.668,67.761,203.07z"/>
</g>
</svg>
