<?xml version="1.0" encoding="utf-8"?>
<!-- Generator: Adobe Illustrator 16.0.0, SVG Export Plug-In . SVG Version: 6.00 Build 0)  -->
<!DOCTYPE svg PUBLIC "-//W3C//DTD SVG 1.1//EN" "http://www.w3.org/Graphics/SVG/1.1/DTD/svg11.dtd">
<svg version="1.1" id="Layer_1" xmlns="http://www.w3.org/2000/svg" xmlns:xlink="http://www.w3.org/1999/xlink" x="0px" y="0px"
	 width="283.46px" height="283.46px" viewBox="0 0 283.46 283.46" enable-background="new 0 0 283.46 283.46" xml:space="preserve">
<path d="M271.467,202.422c-6.198,0-12.068,0-18.168,0c0-36.599,0-72.983,0-109.728c5.898,0,11.87,0,18.168,0
	C271.467,129.088,271.467,165.58,271.467,202.422z"/>
<path d="M219.639,127.405c-2.631-4.762-5.465-9.893-8.107-14.676c8.417-4.662,16.873-9.345,25.088-13.894
	c2.633,4.739,5.473,9.849,8.097,14.575C236.608,117.939,228.268,122.59,219.639,127.405z"/>
<path d="M24.195,141.579c-3.574-4.206-6.91-8.135-10.248-12.058c14.478-12.828,35.867-13.984,51.898-2.974
	c15.826,10.863,22.34,31.229,15.805,49.395c-5.855,16.27-23.182,28.657-38.259,27.187c0-4.814,0-9.646,0-14.619
	c13.48-2.52,22.503-10.028,24.448-23.858c1.484-10.531-2.937-19.263-11.851-25.044C45.336,132.687,34.714,134.005,24.195,141.579z"
	/>
<path d="M66.157,91.763c0,4.979,0,9.658,0,14.584c-17.021,0-33.849,0-51.045,0c0-4.672,0-9.463,0-14.584
	C31.905,91.763,48.837,91.763,66.157,91.763z"/>
<path d="M146.271,207.998c-19.265,0.018-35.238-15.868-35.089-34.903c0.152-19.067,15.78-34.633,34.83-34.684
	c19.492-0.051,35.128,15.345,35.183,34.653C181.255,192.367,165.658,207.969,146.271,207.998z M146.036,193.041
	c10.842,0.109,19.923-8.677,20.125-19.443c0.202-10.934-8.794-20.197-19.734-20.313c-10.907-0.111-20.137,9.009-20.137,19.916
	C126.294,183.905,135.28,192.937,146.036,193.041z"/>
<path d="M129.056,133.067c-5.188,0-10.34,0-15.461,0c-5.542-11.511-0.566-28.796,10.197-37.447
	c13.222-10.635,30.462-11.095,43.786-0.996c11.795,8.936,16.903,25.994,11.422,38.453c-5.1,0-10.262,0-14.622,0
	c0.442-4.991,1.54-10.011,1.146-14.912c-0.427-5.344-3.835-9.501-8.36-12.496c-7.191-4.75-16.112-4.368-23.151,0.944
	C126.374,112.373,124.948,119.896,129.056,133.067z"/>
<line fill="none" stroke="#000000" stroke-width="1.7523" stroke-miterlimit="10" x1="9.922" y1="64.205" x2="276.919" y2="64.205"/>
</svg>
