<?xml version="1.0" encoding="utf-8"?>
<!-- Generator: Adobe Illustrator 16.0.0, SVG Export Plug-In . SVG Version: 6.00 Build 0)  -->
<!DOCTYPE svg PUBLIC "-//W3C//DTD SVG 1.1//EN" "http://www.w3.org/Graphics/SVG/1.1/DTD/svg11.dtd">
<svg version="1.1" id="Layer_1" xmlns="http://www.w3.org/2000/svg" xmlns:xlink="http://www.w3.org/1999/xlink" x="0px" y="0px"
	 width="283.46px" height="283.46px" viewBox="0 0 283.46 283.46" enable-background="new 0 0 283.46 283.46" xml:space="preserve">
<g id="Layer_2">
	<path fill="none" stroke="#000000" stroke-width="1.1963" stroke-miterlimit="10" d="M48.612,46.566
		c0,0,74.964-32.694,118.017-21.531c43.066,11.165,86.928,43.859,98.888,85.327c11.965,41.466,4.786,95.694-15.149,118.817
		c-19.939,23.127-117.22,48.646-169.058,7.972C29.473,196.487-45.491,96.805,48.612,46.566z"/>
	<path fill="none" stroke="#000000" stroke-width="0.5981" stroke-miterlimit="10" d="M8.113,136.989
		c0,0,29.886-76.124,68.234-98.679c38.346-22.552,92.472-30.447,130.252-9.583c37.779,20.864,71.054,64.281,73.309,94.73
		c2.25,30.449-48.496,117.287-113.91,125.179C100.592,256.533-22.903,239.048,8.113,136.989z"/>
	<path fill="none" stroke="#000000" stroke-width="0.5981" stroke-miterlimit="10" d="M47.32,230.332
		c0,0-32.7-74.959-21.532-118.021c11.167-43.062,43.863-86.92,85.329-98.882c41.462-11.959,95.69-4.786,118.818,15.153
		c23.121,19.937,48.645,117.223,7.973,169.053C197.235,249.471,97.556,324.431,47.32,230.332z"/>
</g>
</svg>
