<?xml version="1.0" encoding="utf-8"?>
<!-- Generator: Adobe Illustrator 16.0.0, SVG Export Plug-In . SVG Version: 6.00 Build 0)  -->
<!DOCTYPE svg PUBLIC "-//W3C//DTD SVG 1.1//EN" "http://www.w3.org/Graphics/SVG/1.1/DTD/svg11.dtd">
<svg version="1.1" id="Layer_1" xmlns="http://www.w3.org/2000/svg" xmlns:xlink="http://www.w3.org/1999/xlink" x="0px" y="0px"
	 width="283.46px" height="283.46px" viewBox="0 0 283.46 283.46" enable-background="new 0 0 283.46 283.46" xml:space="preserve">
<g>
	<path d="M75.667,135.845v-1.183l13.381-14.342v3.688l-10.424,11.104v0.12l10.424,9.809v3.722L75.667,135.845z"/>
	<path d="M92.977,160.257h-1.928l10.956-50.597h1.979L92.977,160.257z"/>
	<path d="M106.205,148.762v-3.722l10.456-9.778v-0.148l-10.456-11.104v-3.688l13.379,14.341v1.183L106.205,148.762z"/>
</g>
<path d="M18.562,155.17c3.042,0,5.724-0.838,8.058-2.495c2.331-1.666,3.494-4.165,3.494-7.489h1.533l0.064,0.198
	c0.087,3.529-1.205,6.342-3.878,8.441c-2.676,2.099-5.766,3.144-9.273,3.144c-4.596,0-8.199-1.655-10.806-4.955
	c-2.609-3.311-3.912-7.659-3.912-13.053v-1.402c0-5.369,1.299-9.709,3.892-13.017c2.6-3.309,6.182-4.957,10.754-4.957
	c3.733,0,6.886,1.088,9.472,3.279c2.589,2.188,3.833,5.266,3.748,9.238l-0.067,0.198h-1.533c0-3.528-1.127-6.226-3.393-8.101
	c-2.265-1.879-5.007-2.817-8.227-2.817c-4.215,0-7.414,1.514-9.586,4.531c-2.173,3.019-3.265,6.905-3.265,11.65v1.4
	c0,4.791,1.089,8.696,3.265,11.703C11.081,153.667,14.3,155.17,18.562,155.17z"/>
<path d="M169.609,137.975c0-5.7,1.197-10.233,3.596-13.599c2.395-3.362,5.724-5.038,9.988-5.038c2.794,0,5.225,0.623,7.271,1.876
	c2.055,1.256,3.69,2.972,4.914,5.145v-22.273h1.797v27.003c0,0.041,0,0.076,0,0.1c0,0.025,0.013,0.036,0.036,0.036v14.679
	c-0.023,0.045-0.036,0.08-0.036,0.106c0,0.02,0,0.04,0,0.062v9.95h-1.73l-0.063-5.558c-1.201,1.933-2.843,3.455-4.935,4.577
	c-2.079,1.12-4.526,1.683-7.323,1.683c-4.235,0-7.55-1.622-9.939-4.859c-2.383-3.239-3.578-7.634-3.578-13.185v-0.702h0.003V137.975
	z M171.473,138.675c0,4.976,0.976,8.921,2.945,11.853c1.969,2.932,4.858,4.394,8.674,4.394c3.126,0,5.729-0.706,7.79-2.118
	c2.066-1.409,3.563-3.283,4.495-5.638v-17.047c-0.888-2.556-2.292-4.693-4.214-6.411c-1.918-1.72-4.587-2.577-8.007-2.577
	c-3.815,0-6.719,1.558-8.711,4.676c-1.985,3.122-2.974,7.175-2.974,12.168L171.473,138.675L171.473,138.675z"/>
<path d="M265.705,156.711c-4.244,0-7.817-1.642-10.74-4.926c-2.918-3.283-4.377-7.421-4.377-12.417v-2.131
	c0-5.212,1.446-9.505,4.343-12.868c2.899-3.359,6.541-5.039,10.942-5.039c3.99,0,7.178,1.313,9.553,3.944
	c2.373,2.63,3.568,6.221,3.568,10.768v2.764h-26.604v0.432v2.131c0,4.397,1.244,8.088,3.726,11.069
	c2.487,2.986,5.683,4.478,9.591,4.478c2.152,0,4.223-0.4,6.207-1.197c1.985-0.797,3.604-1.865,4.848-3.195l0.963,1.396
	c-1.264,1.401-2.897,2.551-4.895,3.446S268.457,156.711,265.705,156.711z M265.873,121.125c-3.729,0-6.79,1.291-9.175,3.882
	c-2.384,2.582-3.735,5.851-4.04,9.805l0.097,0.197h24.438v-1.101c0-3.707-1.007-6.762-3.028-9.171
	C272.139,122.331,269.375,121.125,265.873,121.125z"/>
</svg>
